<?xml version="1.0" encoding="UTF-8"?><svg id="Layer_1" xmlns="http://www.w3.org/2000/svg" viewBox="0 0 1252.96 321.72"><defs><style>.cls-1,.cls-2{fill:#fff;}.cls-2{fill-rule:evenodd;}</style></defs><path class="cls-1" d="m585.39,296.7l-11.5-11.5v-77.64l11.5-11.5h27.32l11.5,11.5v17.25h-14.38v-14.38h-21.57v71.89h21.57v-14.38h14.38v17.25l-11.5,11.5h-27.32Z"/><path class="cls-1" d="m721.2,296.7l-11.5-11.5v-77.64l11.5-11.5h27.32l11.5,11.5v77.64l-11.5,11.5h-27.32Zm2.88-14.38h21.57v-71.89h-21.57v71.89Z"/><path class="cls-1" d="m845.52,296.7l21.57-100.65h14.38l21.57,100.65h-14.38l-6.18-28.76h-16.39l-6.18,28.76h-14.38Zm28.76-67.07l-5.18,23.94h10.35l-5.18-23.94Z"/><path class="cls-1" d="m1000.02,296.7l-11.5-11.5v-77.64l11.5-11.5h27.32l11.5,11.5v17.25h-14.38v-14.38h-21.57v71.89h21.57v-14.38h14.38v17.25l-11.5,11.5h-27.32Z"/><path class="cls-1" d="m1124.34,296.7v-100.65h14.38v43.13h21.57v-43.13h14.38v100.65h-14.38v-43.13h-21.57v43.13h-14.38Z"/><path class="cls-1" d="m618.05,150.4c-7.13,0-13.72-1.03-19.79-3.09-6.07-2.06-11.33-4.98-15.78-8.77-4.45-3.78-7.85-8.18-10.19-13.19-.89-1.78-.92-3.42-.08-4.93.83-1.5,2.25-2.53,4.26-3.09,1.56-.44,3.09-.28,4.59.5,1.5.78,2.64,1.95,3.42,3.51,1.67,3.23,4.12,6.12,7.35,8.69,3.23,2.56,7.07,4.54,11.52,5.93,4.45,1.39,9.35,2.09,14.7,2.09,5.9,0,11.13-.97,15.7-2.92,4.56-1.95,8.16-4.79,10.77-8.52,2.62-3.73,3.92-8.27,3.92-13.61,0-6.79-2.5-12.64-7.52-17.54-5.01-4.9-12.86-8.02-23.55-9.35-13.03-1.56-23.22-5.6-30.56-12.11-7.35-6.51-11.02-14.5-11.02-23.97,0-6.79,1.81-12.69,5.43-17.7,3.62-5.01,8.6-8.88,14.95-11.61,6.35-2.73,13.64-4.09,21.88-4.09,6.12,0,11.69.98,16.7,2.92,5.01,1.95,9.38,4.51,13.11,7.68,3.73,3.17,6.76,6.65,9.1,10.44,1.11,1.78,1.47,3.51,1.08,5.18-.39,1.67-1.36,2.95-2.92,3.84-1.67.78-3.37.89-5.09.33-1.73-.56-3.04-1.61-3.93-3.17-1.67-2.56-3.76-4.98-6.26-7.27-2.5-2.28-5.54-4.09-9.1-5.43-3.56-1.34-7.85-2.06-12.86-2.17-8.8,0-15.87,1.87-21.21,5.6-5.34,3.73-8.02,9.16-8.02,16.28,0,3.79,1,7.27,3.01,10.44s5.32,5.9,9.94,8.18c4.62,2.28,10.83,3.98,18.62,5.09,13.92,2,24.24,6.26,30.98,12.78,6.74,6.51,10.11,15.01,10.11,25.47,0,6.01-1.09,11.36-3.26,16.03-2.17,4.68-5.23,8.6-9.19,11.77-3.95,3.17-8.57,5.6-13.86,7.27-5.29,1.67-10.94,2.51-16.95,2.51Z"/><path class="cls-1" d="m681.35,148.73c-2.56,0-4.4-1.06-5.51-3.17-1.11-2.11-1.23-4.18-.33-6.18l49.1-116.58c1.22-3.01,3.34-4.51,6.35-4.51s4.95,1.5,6.18,4.51l49.27,116.75c1,2.12.86,4.18-.42,6.18-1.28,2-3.09,3.01-5.43,3.01-1.34,0-2.53-.33-3.59-1-1.06-.67-1.92-1.67-2.59-3.01l-45.93-111.4h5.18l-46.26,111.4c-.56,1.34-1.37,2.34-2.42,3.01-1.06.67-2.25,1-3.59,1Zm11.02-31.07l5.01-11.19h67.81l5.01,11.19h-77.83Z"/><path class="cls-1" d="m812.45,148.73c-1.89,0-3.45-.61-4.68-1.84-1.23-1.22-1.84-2.78-1.84-4.68V24.8c0-1.89.61-3.45,1.84-4.68s2.78-1.84,4.68-1.84h33.4c8.24,0,15.53,1.81,21.88,5.43,6.35,3.62,11.3,8.6,14.86,14.95,3.56,6.35,5.34,13.7,5.34,22.05s-1.78,15.34-5.34,21.63c-3.56,6.29-8.52,11.25-14.86,14.86-6.35,3.62-13.64,5.43-21.88,5.43h-26.89v39.58c0,1.89-.61,3.45-1.84,4.68s-2.79,1.84-4.68,1.84Zm6.51-58.62h26.89c5.68,0,10.74-1.25,15.2-3.76,4.45-2.51,7.93-5.98,10.44-10.44,2.5-4.45,3.76-9.52,3.76-15.2s-1.25-11.08-3.76-15.53c-2.51-4.45-5.99-7.96-10.44-10.52-4.46-2.56-9.52-3.84-15.2-3.84h-26.89v59.29Z"/><path class="cls-1" d="m914.67,148.73c-1.89,0-3.45-.61-4.68-1.84-1.23-1.22-1.84-2.78-1.84-4.68V24.8c0-1.89.61-3.45,1.84-4.68s2.78-1.84,4.68-1.84,3.45.61,4.68,1.84c1.22,1.23,1.84,2.78,1.84,4.68v117.41c0,1.89-.61,3.45-1.84,4.68s-2.79,1.84-4.68,1.84Z"/><path class="cls-1" d="m961.1,148.73c-1.89,0-3.45-.61-4.68-1.84-1.23-1.22-1.84-2.78-1.84-4.68V24.8c0-1.89.61-3.45,1.84-4.68s2.78-1.84,4.68-1.84h78.33c1.78,0,3.31.58,4.59,1.75,1.28,1.17,1.92,2.7,1.92,4.59,0,1.67-.64,3.12-1.92,4.34-1.28,1.23-2.81,1.84-4.59,1.84h-71.82v46.1h52.28c1.89,0,3.45.61,4.68,1.84,1.22,1.23,1.84,2.73,1.84,4.51s-.61,3.29-1.84,4.51-2.78,1.84-4.68,1.84h-52.28v46.6h71.82c1.78,0,3.31.61,4.59,1.84,1.28,1.23,1.92,2.67,1.92,4.34,0,1.89-.64,3.42-1.92,4.59-1.28,1.17-2.81,1.75-4.59,1.75h-78.33Z"/><path class="cls-1" d="m1076.68,148.73c-1.89,0-3.45-.61-4.68-1.84-1.23-1.22-1.84-2.78-1.84-4.68V24.8c0-1.89.61-3.45,1.84-4.68s2.78-1.84,4.68-1.84c2,0,3.67.78,5.01,2.34l79.83,104.89V24.8c0-1.89.61-3.45,1.84-4.68s2.78-1.84,4.68-1.84c1.78,0,3.31.61,4.59,1.84,1.28,1.23,1.92,2.78,1.92,4.68v117.41c0,1.89-.64,3.45-1.92,4.68-1.28,1.23-2.81,1.84-4.59,1.84-.89,0-1.78-.17-2.67-.5-.89-.33-1.62-.89-2.17-1.67l-80-104.89v100.55c0,1.89-.64,3.45-1.92,4.68-1.28,1.23-2.81,1.84-4.59,1.84Z"/><path class="cls-2" d="m467.53,16.95c-4.8.84-9.86,4.56-12.28,9.07-1.1,2-1.23,2.8-1.36,6.87-.18,4.24-.09,4.88,1.01,7.59.66,1.64,1.32,4.2,1.41,5.64l.22,2.64-1.98.88c-3.7,1.6-5.76,3.72-8.36,8.35-4.31,7.71-5.32,12.07-5.32,23.46-.04,11.43.79,15.03,5.9,25.06,1.45,2.8,2.86,6,3.17,7.03.75,2.88.62,13.27-.26,16.99-.4,1.68-1.72,5.08-2.95,7.47-3.12,6.35-3.65,8.63-3.3,15.19.35,8.07,1.72,13.55,9.72,39.77,2.86,9.39,2.9,9.67,2.73,13.39-.18,3.04-.62,4.92-2.24,9.59-3.17,8.99-7.22,26.54-11.22,48.2-2.51,13.63-4,23.38-4,26.26,0,4.52,2.29,6.87,5.76,5.92,1.94-.52,3.12-1.76,4.18-4.36,2.07-5.24,8.62-20.38,13.33-31.02,8.23-18.43,12.63-29.46,15.93-40.01,4.66-14.87,5.19-27.94,2.6-63.95-1.36-18.75-1.67-16.03,3.96-35.77,7.88-27.54,9.1-38.74,2.98-50.65-2.02-3.88-4.08-6.98-7.9-10.75-2.15-2.21-3.44-3.07-3.31-3.23.13-.12,1.54,0,3.08.24,4.27.68,7.52.56,8.32-.28,1.14-1.12,1.67-3.64,1.67-8.07v-4.2l1.32-.68c2.16-1.12,2.2-2.44.04-6l-1.85-3.12.48-2.48c1.23-6.39-2.02-12.07-8.45-14.71-1.5-.64-2.82-.76-6.51-.76-2.55.04-5.46.2-6.51.4Z"/><path class="cls-2" d="m364.88,50.01c-2.75.6-6.31,2.68-7.92,4.56-.8.96-2.64,4.08-4.13,6.99-1.45,2.88-2.98,5.76-3.33,6.43-.5.88-1.68,1.68-4.32,3-3.25,1.64-3.86,2.12-5.93,4.72-4.02,5.08-6.66,11.47-7.84,19.18-.84,5.32-.73,8.11.54,14.03,1.72,8.11,2.1,11.19,2.1,17.43,0,6.95-.65,11.59-3.21,22.42-3.56,15.03-3.18,19.46,3.06,35.53,2.95,7.55,8.84,21.54,12.74,30.22,4.51,9.95,4.67,13.23,1.22,25.9-1.99,7.39-3.9,16.59-7.5,36.37-2.64,14.39-2.75,15.23-2.22,16.79,1.42,4.24,6.96,4.68,9.07.68.92-1.72,7.84-17.23,11.4-25.5,6.08-14.11,11.32-28.02,13.39-35.49,1.07-3.8,1.11-4.36,1.07-11.39-.04-10.19-1.91-24.58-6.5-49.28-1.26-6.79-2.17-9.35-2.35-10.84-.4-2.52-.71-5.47.99-11.56.99-5.81,1.97-10.02,3.19-13.85,5.4-17.7,9.92-27.89,2.53-45.93-.61-1.88-1.22-3.92-1.34-4.52l-.19-1.12,1.65.6c2.41.88,8.07,1.2,10.86.6,1.99-.44,2.52-.76,4.09-2.52,2.64-2.96,4.55-6.99,4.82-10.07.19-2.88-.57-5.56-2.03-6.99-.84-.84-.88-.92-.31-2.32.54-1.32.54-1.68-.04-3.52-.88-2.88-3.02-5-7.27-7.15-5.36-2.72-12.51-4.2-16.3-3.4Z"/><path class="cls-2" d="m263.64,59.25c-3.33.92-5.47,2.32-8.15,5.24-2.45,2.68-4.97,7.71-6.16,12.43-.84,3.16-1.22,3.64-4.59,5.72-2.07,1.28-3.1,2.32-5.09,5.04-3.56,4.92-4.97,8.19-6.04,13.87-1.57,8.31-1.8,11.75-1.65,26.66.11,15.75.08,16.15-2.79,24.06-2.45,6.91-3.25,14.31-2.26,20.9.54,3.4,4.06,14.63,9.64,30.66,8.65,24.74,8.34,22.94,5.09,30.98-4.55,11.35-10.98,32.73-14.54,48.6-2.1,9.27-2.1,10.99-.15,13.07,1.03,1.04,1.34,1.16,2.87.96,3.18-.36,4.32-1.6,7.65-8.15,1.61-3.24,5.43-10.79,8.49-16.71,10.21-19.86,15.69-32.09,17.1-38.21,1.68-7.23.73-38.21-1.76-56.91-.88-6.71-.92-12.39-.15-15.55.34-1.32,1.68-4.44,2.98-6.99,4.09-7.87,5.97-12.71,7.65-19.42,3.1-12.31,2.91-19.82-.77-31.89l-1.42-4.72.73-1.44c1.07-2,2.49-2.52,7.15-2.52,6.27,0,7.73-1.16,8.72-6.87.46-2.56.27-6.35-.42-8.19-.19-.56-1.19-2.04-2.22-3.24l-1.91-2.24,1.53-1.72c1.3-1.52,1.49-1.92,1.49-3.68,0-1.64-.23-2.28-1.26-3.72-3.86-5.28-12.78-7.99-19.78-6Z"/><path class="cls-2" d="m168.11,88.26c-2.64.76-4.51,1.84-5.47,3.12-2.49,3.48-4.71,5.52-9.72,8.95-8.34,5.72-12.93,10.47-18.48,19.02-5.39,8.35-6.73,12.27-7.84,23.1-1.26,11.95-4.13,19.54-10.64,28.1-5.43,7.15-7.15,11.39-7.15,17.75,0,4.48.57,6.91,2.52,10.99,2.91,6.04,14.15,25.26,19.47,33.29,2.56,3.84,3.44,6.28,3.02,8.31-.11.72-.99,3.6-1.87,6.47-.92,2.84-2.45,8.87-3.4,13.39-2.37,11.39-5.97,30.54-5.97,32.01s.92,3.4,1.87,3.96c.42.2,1.45.4,2.3.4,2.22,0,3.67-1.56,6.77-7.19,8.3-15.15,18.29-39.85,19.66-48.72,1.07-6.87-1.26-18.43-8.42-41.45-1.91-6.08-3.44-11.59-3.44-12.23,0-1.64-.73-4.12,3.21-8.91,11.17-13.59,20.42-26.53,23.1-31.65,3.52-6.67,5.35-11.93,4.55-21.14-.5-3.6.55-4.93,2.04-6.49,1.68-1.8,2.72-1.8,7.27-.16,6.58,2.4,9.45,2,11.78-1.52,1.45-2.28.96-7.07-1.22-11.51-.54-1.08-2.68-3.08-4.63-4.28-.61-.4-.61-.52.15-1.8.42-.76.8-2.08.8-2.88,0-1.24-.34-1.88-2.18-3.92-2.56-2.88-3.98-3.72-8.23-4.8-3.56-.88-7.31-1-9.87-.24Z"/><path class="cls-2" d="m61.54,165.93c-4.48,1.48-12.01,9.31-12.01,12.51,0,.8-.19.92-1.65.92-5.05,0-16.6,6.39-22.88,12.67-5.47,5.48-9.53,11.71-16.72,25.9C1.37,231.56-.58,237.15.14,241.31c.5,3,2.14,6.55,3.67,7.87,1.91,1.72,4.63,2.76,18.48,7.11,7.23,2.32,13.43,4.4,13.7,4.64.99.84.54,2.04-3.02,7.91-8.49,13.91-12.13,21.1-12.13,24.02,0,4.24,4.17,5.36,7.92,2.16,6.2-5.32,29.99-29.46,31.03-31.53.34-.72.61-2.2.61-3.64.04-2.04-.15-2.72-1.11-4.2-1.8-2.84-12.2-13.39-17.6-17.91-2.72-2.28-6.46-4.34-7.28-5.99-.73-1.58,1.79-5.79,2.98-6.86,1.22-1.24,4.74-4.48,6.97-5.95,2.09-1.41,5.81-3.34,8-5.49,1.99-2.06,3.93-3.67,5.39-5.75,1.56-2.11,3.98-5.24,5.01-7.32.61-1.21,2.17-3.24,2.21-3.28.08-.08,1.53-1.14,3.19-.86,2.07.28,3.77.59,5.82.8,1.82.15,5.8.05,6.9-.94,1.08-1.11,2.68-1.99,2.72-5.99,0-1.64-1.3-3.8-3.67-5.92l-1.49-1.4v-8.59l-1.53-1.64c-2.3-2.48-6.81-5.48-9.6-6.39-2.91-.92-3.56-.96-5.74-.24Z"/></svg>